<?xml version="1.0" encoding="UTF-8" standalone="no"?>
<!-- Created with Inkscape (http://www.inkscape.org/) -->

<svg
   version="1.1"
   id="svg2"
   width="1024"
   height="1024"
   viewBox="0 0 1024 1024"
   sodipodi:docname="casebrary-logo.svg"
   inkscape:version="1.2.2 (b0a8486541, 2022-12-01)"
   inkscape:export-filename="casebrary-logo-plain.svg"
   inkscape:export-xdpi="96"
   inkscape:export-ydpi="96"
   xmlns:inkscape="http://www.inkscape.org/namespaces/inkscape"
   xmlns:sodipodi="http://sodipodi.sourceforge.net/DTD/sodipodi-0.dtd"
   xmlns="http://www.w3.org/2000/svg"
   xmlns:svg="http://www.w3.org/2000/svg">
  <defs
     id="defs6" />
  <sodipodi:namedview
     id="namedview4"
     pagecolor="#ffffff"
     bordercolor="#000000"
     borderopacity="0.25"
     inkscape:showpageshadow="2"
     inkscape:pageopacity="0.0"
     inkscape:pagecheckerboard="0"
     inkscape:deskcolor="#d1d1d1"
     showgrid="false"
     inkscape:zoom="0.46191406"
     inkscape:cx="465.45455"
     inkscape:cy="496.84567"
     inkscape:window-width="1366"
     inkscape:window-height="731"
     inkscape:window-x="0"
     inkscape:window-y="0"
     inkscape:window-maximized="1"
     inkscape:current-layer="layer1" />
  <g
     inkscape:groupmode="layer"
     id="layer1"
     inkscape:label="Logo">
    <g
       inkscape:groupmode="layer"
       id="layer2"
       inkscape:label="Logo Outline"
       style="stroke:#1a1a1a">
      <path
         style="opacity:1;fill:none;stroke:#1a1a1a;stroke-width:7;stroke-linecap:round;stroke-linejoin:round;stroke-dasharray:none"
         d="m 176.90552,286.51127 c 0,0 -1.47893,-66.15918 -0.19615,-87.56332 1.94456,-32.44644 36.45117,-68.47721 67.7138,-68.81055 157.37827,-1.67808 404.25641,2.0276 518.43994,1.18598 43.42674,-0.32009 71.66187,46.73588 71.73479,69.08277 0.41571,127.39665 -0.67827,662.01245 -0.67827,662.01245 l -516.31924,-0.389 c 0,0 -60.86482,0.033 -73.26476,-0.2947 -30.98571,-0.81884 -64.14678,-36.58854 -65.6122,-61.32421 -4.9562,-83.65843 -1.81794,-513.89942 -1.81794,-513.89942"
         id="path1578"
         sodipodi:nodetypes="cssssccssc" />
      <path
         style="fill:none;stroke:#1a1a1a;stroke-width:7;stroke-linecap:round;stroke-linejoin:round;stroke-dasharray:none"
         d="m 159.43516,276.62847 c 0,0 -1.56901,-69.46455 -0.2081,-91.93806 2.063,-34.06749 38.6713,-71.89839 71.83805,-72.24838 166.96371,-1.76192 428.87847,2.1289 550.01658,1.24523 46.07174,-0.33608 76.02659,49.07084 76.10395,72.5342 0.44103,133.7615 -0.71958,695.08715 -0.71958,695.08715 l -547.76672,-0.40844 c 0,0 -64.57192,0.0346 -77.7271,-0.30942 -32.87296,-0.85975 -68.05377,-38.41653 -69.60845,-64.38802 -5.25807,-87.83807 -1.92866,-539.57426 -1.92866,-539.57426"
         id="path1578-3"
         sodipodi:nodetypes="cssssccssc" />
    </g>
    <g
       inkscape:groupmode="layer"
       id="layer3"
       inkscape:label="Logo Details">
      <ellipse
         style="opacity:1;fill:none;stroke:#1a1a1a;stroke-width:7;stroke-linecap:round;stroke-linejoin:round;stroke-dasharray:none"
         id="path2509"
         cx="324.96088"
         cy="251.17441"
         rx="63.208244"
         ry="63.812897" />
      <ellipse
         style="fill:none;stroke:#1a1a1a;stroke-width:7;stroke-linecap:round;stroke-linejoin:round;stroke-dasharray:none"
         id="path2509-6"
         cx="548.99567"
         cy="714.36017"
         rx="40.687035"
         ry="40.637821" />
      <ellipse
         style="fill:none;stroke:#1a1a1a;stroke-width:7;stroke-linecap:round;stroke-linejoin:round;stroke-dasharray:none"
         id="path2509-6-7"
         cx="370.29373"
         cy="714.36017"
         rx="40.687035"
         ry="40.637821" />
      <rect
         style="opacity:1;fill:none;stroke:#1a1a1a;stroke-width:7;stroke-linecap:round;stroke-linejoin:round;stroke-dasharray:none"
         id="rect2565"
         width="96.16951"
         height="96.91687"
         x="498.39038"
         y="507.29526"
         ry="4.7047424"
         rx="4.8541226" />
      <rect
         style="fill:none;stroke:#1a1a1a;stroke-width:7;stroke-linecap:round;stroke-linejoin:round;stroke-dasharray:none"
         id="rect2565-5"
         width="96.16951"
         height="96.91687"
         x="498.39038"
         y="350.70224"
         ry="4.7047424"
         rx="4.8541226" />
      <path
         style="opacity:1;fill:none;stroke:#1a1a1a;stroke-width:7;stroke-linecap:round;stroke-linejoin:round;stroke-dasharray:none"
         d="m 548.64156,621.5239 v 39.19242"
         id="path2609"
         sodipodi:nodetypes="cc" />
      <path
         style="fill:none;stroke:#1a1a1a;stroke-width:7;stroke-linecap:round;stroke-linejoin:round;stroke-dasharray:none"
         d="m 369.41722,577.72202 v 79.06187"
         id="path2609-3"
         sodipodi:nodetypes="cc" />
      <path
         style="opacity:1;fill:none;stroke:#1a1a1a;stroke-width:7;stroke-linecap:round;stroke-linejoin:round;stroke-dasharray:none"
         d="m 324.96088,333.29385 c 0,0 -1.10784,17.48556 0.69186,29.84486 1.51317,10.39158 3.98501,21.16714 12.99297,29.86274 6.81978,6.58329 21.05828,14.6486 42.81789,14.25748 23.98786,-0.43117 98.59687,-0.35261 98.59687,-0.35261"
         id="path2663"
         sodipodi:nodetypes="csssc" />
      <path
         style="fill:none;stroke:#1a1a1a;stroke-width:7;stroke-linecap:round;stroke-linejoin:round;stroke-dasharray:none"
         d="m 323.8038,446.03553 c 0,0 -1.24314,58.52392 0.55656,70.88322 1.51317,10.39158 5.27739,21.66346 14.28535,30.35906 6.81978,6.58329 21.05828,14.6486 42.81789,14.25748 23.98786,-0.43117 98.59687,-0.35261 98.59687,-0.35261"
         id="path2663-5"
         sodipodi:nodetypes="csssc" />
    </g>
  </g>
</svg>
